<mxfile host="65bd71144e">
    <diagram id="W6rFRck9pDVd--cjHuxC" name="Page-1">
        <mxGraphModel dx="4670" dy="4410" grid="1" gridSize="10" guides="1" tooltips="1" connect="1" arrows="1" fold="1" page="1" pageScale="1" pageWidth="850" pageHeight="1100" math="0" shadow="0">
            <root>
                <mxCell id="0"/>
                <mxCell id="1" parent="0"/>
                <mxCell id="1185" value="" style="rounded=1;whiteSpace=wrap;html=1;fillColor=#e1d5e7;opacity=40;strokeColor=#9673a6;glass=0;strokeWidth=3;rotation=90;" parent="1" vertex="1">
                    <mxGeometry x="2830" y="-306.09000000000003" width="970.07" height="412.19" as="geometry"/>
                </mxCell>
                <mxCell id="1186" value="F0 - F.." style="whiteSpace=wrap;html=1;aspect=fixed;fillColor=#e1d5e7;strokeColor=#9673a6;strokeWidth=3;rotation=90;fontSize=30;horizontal=0;fontStyle=1" parent="1" vertex="1">
                    <mxGeometry x="3320" y="-490" width="160" height="160" as="geometry"/>
                </mxCell>
                <mxCell id="1188" value="F4 - F.." style="whiteSpace=wrap;html=1;aspect=fixed;fillColor=#e1d5e7;strokeColor=#9673a6;strokeWidth=3;rotation=90;fontSize=30;horizontal=0;fontStyle=1" parent="1" vertex="1">
                    <mxGeometry x="3320" y="-242.58000000000004" width="160" height="160" as="geometry"/>
                </mxCell>
                <mxCell id="1189" value="F8 - F.." style="whiteSpace=wrap;html=1;aspect=fixed;fillColor=#e1d5e7;strokeColor=#9673a6;strokeWidth=3;rotation=90;fontSize=30;horizontal=0;fontStyle=1" parent="1" vertex="1">
                    <mxGeometry x="3320" y="20" width="160" height="160" as="geometry"/>
                </mxCell>
                <mxCell id="1218" value="" style="group;strokeWidth=3;strokeColor=#000000;rotation=90;" vertex="1" connectable="0" parent="1">
                    <mxGeometry x="2770" y="-120" width="800" height="40" as="geometry"/>
                </mxCell>
                <mxCell id="1219" value="" style="rounded=0;whiteSpace=wrap;html=1;fillColor=#CCFFFF;strokeWidth=3;strokeColor=#000000;rotation=90;" vertex="1" parent="1218">
                    <mxGeometry width="800" height="40" as="geometry"/>
                </mxCell>
                <mxCell id="1220" value="" style="group;strokeWidth=3;strokeColor=none;rotation=90;" vertex="1" connectable="0" parent="1218">
                    <mxGeometry x="362" y="8" width="76.85589519650655" height="20" as="geometry"/>
                </mxCell>
                <mxCell id="1221" value="" style="endArrow=none;html=1;rounded=0;strokeWidth=3;strokeColor=#000000;" edge="1" parent="1220">
                    <mxGeometry width="50" height="50" relative="1" as="geometry">
                        <mxPoint x="48" y="-28" as="sourcePoint"/>
                        <mxPoint x="48" y="1" as="targetPoint"/>
                    </mxGeometry>
                </mxCell>
                <mxCell id="1222" value="" style="endArrow=none;html=1;rounded=0;strokeWidth=3;strokeColor=#000000;" edge="1" parent="1220">
                    <mxGeometry width="50" height="50" relative="1" as="geometry">
                        <mxPoint x="48" y="1" as="sourcePoint"/>
                        <mxPoint x="28" y="19" as="targetPoint"/>
                    </mxGeometry>
                </mxCell>
                <mxCell id="1223" value="" style="endArrow=none;html=1;rounded=0;strokeWidth=3;strokeColor=#000000;" edge="1" parent="1220">
                    <mxGeometry width="50" height="50" relative="1" as="geometry">
                        <mxPoint x="28" y="1" as="sourcePoint"/>
                        <mxPoint x="48" y="19" as="targetPoint"/>
                    </mxGeometry>
                </mxCell>
                <mxCell id="1224" value="" style="endArrow=none;html=1;rounded=0;strokeWidth=3;strokeColor=#000000;" edge="1" parent="1220">
                    <mxGeometry width="50" height="50" relative="1" as="geometry">
                        <mxPoint x="48" y="19" as="sourcePoint"/>
                        <mxPoint x="48" y="48" as="targetPoint"/>
                    </mxGeometry>
                </mxCell>
                <mxCell id="1225" value="" style="endArrow=none;html=1;rounded=0;strokeWidth=3;strokeColor=#000000;" edge="1" parent="1220">
                    <mxGeometry width="50" height="50" relative="1" as="geometry">
                        <mxPoint x="28" y="19" as="sourcePoint"/>
                        <mxPoint x="28" y="48" as="targetPoint"/>
                    </mxGeometry>
                </mxCell>
                <mxCell id="1226" value="" style="endArrow=none;html=1;rounded=0;strokeWidth=3;strokeColor=#000000;" edge="1" parent="1220">
                    <mxGeometry width="50" height="50" relative="1" as="geometry">
                        <mxPoint x="28" y="-28" as="sourcePoint"/>
                        <mxPoint x="28" y="1" as="targetPoint"/>
                    </mxGeometry>
                </mxCell>
                <mxCell id="1227" value="" style="endArrow=none;dashed=1;html=1;rounded=0;strokeWidth=10;jumpStyle=arc;strokeColor=#000000;" edge="1" parent="1">
                    <mxGeometry width="50" height="50" relative="1" as="geometry">
                        <mxPoint x="3399.62" y="199.9999999999999" as="sourcePoint"/>
                        <mxPoint x="3400" y="290" as="targetPoint"/>
                    </mxGeometry>
                </mxCell>
                <mxCell id="1232" style="edgeStyle=orthogonalEdgeStyle;rounded=0;orthogonalLoop=1;jettySize=auto;html=1;strokeWidth=3;strokeColor=#000000;startArrow=classic;startFill=1;" edge="1" parent="1">
                    <mxGeometry relative="1" as="geometry">
                        <mxPoint x="3320" y="-410.38" as="targetPoint"/>
                        <mxPoint x="3190" y="-410.38" as="sourcePoint"/>
                        <Array as="points">
                            <mxPoint x="3189.64" y="-410.5"/>
                            <mxPoint x="3189.64" y="-410.5"/>
                        </Array>
                    </mxGeometry>
                </mxCell>
                <mxCell id="1233" style="edgeStyle=orthogonalEdgeStyle;rounded=0;orthogonalLoop=1;jettySize=auto;html=1;strokeWidth=3;strokeColor=#000000;startArrow=classic;startFill=1;" edge="1" parent="1">
                    <mxGeometry relative="1" as="geometry">
                        <mxPoint x="3320" y="-162.96000000000038" as="targetPoint"/>
                        <mxPoint x="3190" y="-162.96000000000038" as="sourcePoint"/>
                        <Array as="points">
                            <mxPoint x="3189.64" y="-163.08000000000004"/>
                            <mxPoint x="3189.64" y="-163.08000000000004"/>
                        </Array>
                    </mxGeometry>
                </mxCell>
                <mxCell id="1234" style="edgeStyle=orthogonalEdgeStyle;rounded=0;orthogonalLoop=1;jettySize=auto;html=1;strokeWidth=3;strokeColor=#000000;startArrow=classic;startFill=1;" edge="1" parent="1">
                    <mxGeometry relative="1" as="geometry">
                        <mxPoint x="3320" y="100" as="targetPoint"/>
                        <mxPoint x="3190" y="100" as="sourcePoint"/>
                        <Array as="points">
                            <mxPoint x="3189.64" y="99.88"/>
                            <mxPoint x="3189.64" y="99.88"/>
                        </Array>
                    </mxGeometry>
                </mxCell>
                <mxCell id="1512" value="IFmap memory" style="text;strokeColor=none;fillColor=none;html=1;fontSize=84;fontStyle=1;verticalAlign=middle;align=center;" vertex="1" parent="1">
                    <mxGeometry x="1496.75" y="450" width="688.5" height="160" as="geometry"/>
                </mxCell>
                <mxCell id="1513" value="OFmap memory" style="text;strokeColor=none;fillColor=none;html=1;fontSize=84;fontStyle=1;verticalAlign=middle;align=center;" vertex="1" parent="1">
                    <mxGeometry x="2970.7799999999997" y="430" width="688.5" height="160" as="geometry"/>
                </mxCell>
                <mxCell id="1516" value="" style="shape=curlyBracket;whiteSpace=wrap;html=1;rounded=1;fontSize=96;strokeWidth=15;rotation=-180;" vertex="1" parent="1">
                    <mxGeometry x="3620" y="-464.99" width="70" height="730" as="geometry"/>
                </mxCell>
                <mxCell id="-81qjUrEjg0skQ8lUWIO-1520" value="" style="shape=flexArrow;endArrow=classic;html=1;shadow=0;sketch=0;fontSize=84;strokeWidth=4;fillColor=#FACAF8;gradientColor=#BFE8B5;strokeColor=default;gradientDirection=west;startArrow=block;startFill=0;endWidth=36.36363636363636;endSize=35.96363636363636;startWidth=53.63636363636363;startSize=35.96363636363636;width=42.72727272727273;rounded=1;" edge="1" parent="1">
                    <mxGeometry width="50" height="50" relative="1" as="geometry">
                        <mxPoint x="2260" y="-90" as="sourcePoint"/>
                        <mxPoint x="2980" y="-90" as="targetPoint"/>
                    </mxGeometry>
                </mxCell>
                <mxCell id="-81qjUrEjg0skQ8lUWIO-1522" value="ASAP Scheduling" style="text;strokeColor=none;fillColor=none;html=1;fontSize=35;fontStyle=1;verticalAlign=middle;align=center;" vertex="1" parent="1">
                    <mxGeometry x="2665.34" y="-82.57999999999998" width="323.5" height="160" as="geometry"/>
                </mxCell>
                <mxCell id="-81qjUrEjg0skQ8lUWIO-1523" value="ALAP Scheduling" style="text;strokeColor=none;fillColor=none;html=1;fontSize=35;fontStyle=1;verticalAlign=middle;align=center;horizontal=0;rotation=90;" vertex="1" parent="1">
                    <mxGeometry x="2290" y="-140" width="83.5" height="300" as="geometry"/>
                </mxCell>
                <mxCell id="-81qjUrEjg0skQ8lUWIO-1524" value="Scales with Fᵤₙᵣₒₗₗ &lt;br&gt;under ASAP" style="text;strokeColor=none;fillColor=none;html=1;fontSize=35;fontStyle=1;verticalAlign=middle;align=center;" vertex="1" parent="1">
                    <mxGeometry x="3720" y="-180" width="323.5" height="160" as="geometry"/>
                </mxCell>
                <mxCell id="7" value="" style="rounded=1;whiteSpace=wrap;html=1;fillColor=#d5e8d4;opacity=40;strokeColor=#000000;glass=0;strokeWidth=3;rotation=-90;" parent="1" vertex="1">
                    <mxGeometry x="1393" y="-298" width="1030" height="447" as="geometry"/>
                </mxCell>
                <mxCell id="8" value="C2" style="whiteSpace=wrap;html=1;aspect=fixed;fillColor=#d5e8d4;strokeColor=#000000;strokeWidth=3;fontSize=50;fontStyle=1;rotation=0;" parent="1" vertex="1">
                    <mxGeometry x="1771" y="-110" width="140" height="140" as="geometry"/>
                </mxCell>
                <mxCell id="9" value="" style="group;strokeWidth=3;strokeColor=#000000;rotation=-90;" parent="1" vertex="1" connectable="0">
                    <mxGeometry x="1642" y="-88" width="800" height="40" as="geometry"/>
                </mxCell>
                <mxCell id="10" value="" style="rounded=0;whiteSpace=wrap;html=1;fillColor=#CCFFFF;strokeWidth=3;strokeColor=#000000;rotation=-90;" parent="9" vertex="1">
                    <mxGeometry width="800" height="40" as="geometry"/>
                </mxCell>
                <mxCell id="11" value="" style="group;strokeWidth=3;strokeColor=none;rotation=-90;" parent="9" vertex="1" connectable="0">
                    <mxGeometry x="362" y="12" width="76.85589519650655" height="20" as="geometry"/>
                </mxCell>
                <mxCell id="12" value="" style="endArrow=none;html=1;rounded=0;strokeWidth=3;strokeColor=#000000;" parent="11" edge="1">
                    <mxGeometry width="50" height="50" relative="1" as="geometry">
                        <mxPoint x="28" y="48" as="sourcePoint"/>
                        <mxPoint x="28" y="19" as="targetPoint"/>
                    </mxGeometry>
                </mxCell>
                <mxCell id="13" value="" style="endArrow=none;html=1;rounded=0;strokeWidth=3;strokeColor=#000000;" parent="11" edge="1">
                    <mxGeometry width="50" height="50" relative="1" as="geometry">
                        <mxPoint x="28" y="19" as="sourcePoint"/>
                        <mxPoint x="48" y="1" as="targetPoint"/>
                    </mxGeometry>
                </mxCell>
                <mxCell id="14" value="" style="endArrow=none;html=1;rounded=0;strokeWidth=3;strokeColor=#000000;" parent="11" edge="1">
                    <mxGeometry width="50" height="50" relative="1" as="geometry">
                        <mxPoint x="48" y="19" as="sourcePoint"/>
                        <mxPoint x="28" y="1" as="targetPoint"/>
                    </mxGeometry>
                </mxCell>
                <mxCell id="15" value="" style="endArrow=none;html=1;rounded=0;strokeWidth=3;strokeColor=#000000;" parent="11" edge="1">
                    <mxGeometry width="50" height="50" relative="1" as="geometry">
                        <mxPoint x="28" y="1" as="sourcePoint"/>
                        <mxPoint x="28" y="-28" as="targetPoint"/>
                    </mxGeometry>
                </mxCell>
                <mxCell id="16" value="" style="endArrow=none;html=1;rounded=0;strokeWidth=3;strokeColor=#000000;" parent="11" edge="1">
                    <mxGeometry width="50" height="50" relative="1" as="geometry">
                        <mxPoint x="48" y="1" as="sourcePoint"/>
                        <mxPoint x="48" y="-28" as="targetPoint"/>
                    </mxGeometry>
                </mxCell>
                <mxCell id="17" value="" style="endArrow=none;html=1;rounded=0;strokeWidth=3;strokeColor=#000000;" parent="11" edge="1">
                    <mxGeometry width="50" height="50" relative="1" as="geometry">
                        <mxPoint x="48" y="48" as="sourcePoint"/>
                        <mxPoint x="48" y="19" as="targetPoint"/>
                    </mxGeometry>
                </mxCell>
                <mxCell id="18" style="edgeStyle=orthogonalEdgeStyle;rounded=0;orthogonalLoop=1;jettySize=auto;html=1;entryX=0.063;entryY=-0.004;entryDx=0;entryDy=0;entryPerimeter=0;strokeWidth=3;strokeColor=#000000;" parent="1" source="8" edge="1">
                    <mxGeometry relative="1" as="geometry">
                        <mxPoint x="2020.8399999999997" y="-40.40000000000009" as="targetPoint"/>
                    </mxGeometry>
                </mxCell>
                <mxCell id="19" style="edgeStyle=orthogonalEdgeStyle;rounded=0;orthogonalLoop=1;jettySize=auto;html=1;entryX=0.388;entryY=0.003;entryDx=0;entryDy=0;entryPerimeter=0;strokeWidth=3;strokeColor=#000000;" parent="1" source="20" edge="1">
                    <mxGeometry relative="1" as="geometry">
                        <mxPoint x="2021" y="-237" as="targetPoint"/>
                    </mxGeometry>
                </mxCell>
                <mxCell id="20" value="C1" style="whiteSpace=wrap;html=1;aspect=fixed;fillColor=#d5e8d4;strokeColor=#000000;strokeWidth=3;fontSize=50;fontStyle=1;rotation=0;" parent="1" vertex="1">
                    <mxGeometry x="1771" y="-307" width="140" height="140" as="geometry"/>
                </mxCell>
                <mxCell id="33" style="edgeStyle=orthogonalEdgeStyle;rounded=0;orthogonalLoop=1;jettySize=auto;html=1;entryX=0.388;entryY=0.003;entryDx=0;entryDy=0;entryPerimeter=0;strokeWidth=3;strokeColor=#000000;" parent="1" source="34" edge="1">
                    <mxGeometry relative="1" as="geometry">
                        <mxPoint x="2021" y="-429" as="targetPoint"/>
                    </mxGeometry>
                </mxCell>
                <mxCell id="34" value="C0" style="whiteSpace=wrap;html=1;aspect=fixed;fillColor=#d5e8d4;strokeColor=#000000;strokeWidth=3;fontSize=50;fontStyle=1;rotation=0;" parent="1" vertex="1">
                    <mxGeometry x="1771" y="-500" width="140" height="140" as="geometry"/>
                </mxCell>
                <mxCell id="51" value="" style="endArrow=none;dashed=1;html=1;rounded=0;strokeWidth=10;jumpStyle=arc;strokeColor=#000000;" parent="1" edge="1">
                    <mxGeometry width="50" height="50" relative="1" as="geometry">
                        <mxPoint x="1840.38" y="267.41999999999996" as="sourcePoint"/>
                        <mxPoint x="1840.38" y="47.41999999999996" as="targetPoint"/>
                    </mxGeometry>
                </mxCell>
                <mxCell id="1517" value="" style="shape=curlyBracket;whiteSpace=wrap;html=1;rounded=1;fontSize=96;strokeWidth=15;rotation=0;" vertex="1" parent="1">
                    <mxGeometry x="1557" y="-424" width="70" height="700" as="geometry"/>
                </mxCell>
                <mxCell id="-81qjUrEjg0skQ8lUWIO-1525" value="Scales with Cᵤₙᵣₒₗₗ &lt;br&gt;under ALAP" style="text;strokeColor=none;fillColor=none;html=1;fontSize=35;fontStyle=1;verticalAlign=middle;align=center;horizontal=1;rotation=0;" vertex="1" parent="1">
                    <mxGeometry x="1220" y="-154" width="323.5" height="160" as="geometry"/>
                </mxCell>
                <mxCell id="-81qjUrEjg0skQ8lUWIO-1529" value="Maximizes OFmap&lt;br&gt;memory" style="text;strokeColor=none;fillColor=none;html=1;fontSize=35;fontStyle=1;verticalAlign=middle;align=center;horizontal=0;rotation=90;" vertex="1" parent="1">
                    <mxGeometry x="2290" y="-70" width="83.5" height="300" as="geometry"/>
                </mxCell>
                <mxCell id="-81qjUrEjg0skQ8lUWIO-1530" value="Maximizes IFmap&lt;br&gt;memory" style="text;strokeColor=none;fillColor=none;html=1;fontSize=35;fontStyle=1;verticalAlign=middle;align=center;horizontal=0;rotation=90;" vertex="1" parent="1">
                    <mxGeometry x="2785.34" y="-80" width="83.5" height="300" as="geometry"/>
                </mxCell>
            </root>
        </mxGraphModel>
    </diagram>
    <diagram id="6jG0MnptlEsOwoKa9b9P" name="Page-2">
        <mxGraphModel dx="-974" dy="731" grid="1" gridSize="10" guides="1" tooltips="1" connect="1" arrows="1" fold="1" page="1" pageScale="1" pageWidth="850" pageHeight="1100" math="0" shadow="0">
            <root>
                <mxCell id="pKWMEKCfFmDl4arv5pSS-0"/>
                <mxCell id="pKWMEKCfFmDl4arv5pSS-1" parent="pKWMEKCfFmDl4arv5pSS-0"/>
                <mxCell id="pKWMEKCfFmDl4arv5pSS-2" value="" style="rounded=1;whiteSpace=wrap;html=1;fillColor=#fff2cc;opacity=40;strokeColor=#000000;glass=0;strokeWidth=3;" vertex="1" parent="pKWMEKCfFmDl4arv5pSS-1">
                    <mxGeometry x="2830" y="450" width="680" height="780" as="geometry"/>
                </mxCell>
                <mxCell id="pKWMEKCfFmDl4arv5pSS-3" value="" style="ellipse;whiteSpace=wrap;html=1;aspect=fixed;fontSize=30;strokeColor=#000000;fillColor=#FFD966;opacity=80;" vertex="1" parent="pKWMEKCfFmDl4arv5pSS-1">
                    <mxGeometry x="2970" y="585.6100000000001" width="173.37" height="173.37" as="geometry"/>
                </mxCell>
                <mxCell id="pKWMEKCfFmDl4arv5pSS-4" value="" style="ellipse;whiteSpace=wrap;html=1;aspect=fixed;fillColor=#67AB9F;strokeWidth=4;strokeColor=#000000;" vertex="1" parent="pKWMEKCfFmDl4arv5pSS-1">
                    <mxGeometry x="3046.6899999999996" y="617.5500000000002" width="40" height="40" as="geometry"/>
                </mxCell>
                <mxCell id="pKWMEKCfFmDl4arv5pSS-5" value="" style="endArrow=none;html=1;rounded=0;strokeColor=#000000;strokeWidth=4;exitX=0;exitY=0;exitDx=0;exitDy=0;entryX=1;entryY=1;entryDx=0;entryDy=0;" edge="1" parent="pKWMEKCfFmDl4arv5pSS-1" source="pKWMEKCfFmDl4arv5pSS-4" target="pKWMEKCfFmDl4arv5pSS-4">
                    <mxGeometry width="50" height="50" relative="1" as="geometry">
                        <mxPoint x="3062.47" y="649.3000000000002" as="sourcePoint"/>
                        <mxPoint x="3087.47" y="618.0500000000002" as="targetPoint"/>
                    </mxGeometry>
                </mxCell>
                <mxCell id="pKWMEKCfFmDl4arv5pSS-6" value="" style="endArrow=none;html=1;rounded=0;strokeColor=#000000;strokeWidth=4;exitX=0;exitY=1;exitDx=0;exitDy=0;entryX=1;entryY=0;entryDx=0;entryDy=0;" edge="1" parent="pKWMEKCfFmDl4arv5pSS-1" source="pKWMEKCfFmDl4arv5pSS-4" target="pKWMEKCfFmDl4arv5pSS-4">
                    <mxGeometry width="50" height="50" relative="1" as="geometry">
                        <mxPoint x="3018.327864376269" y="594.1223304703362" as="sourcePoint"/>
                        <mxPoint x="3046.781484117605" y="629.2634181196968" as="targetPoint"/>
                    </mxGeometry>
                </mxCell>
                <mxCell id="pKWMEKCfFmDl4arv5pSS-7" style="edgeStyle=orthogonalEdgeStyle;jumpStyle=none;jumpSize=6;orthogonalLoop=1;jettySize=auto;html=1;entryX=0;entryY=0.5;entryDx=0;entryDy=0;startArrow=none;startFill=0;endArrow=classic;endFill=1;startSize=1;endSize=1;strokeColor=#000000;strokeWidth=3;rounded=1;exitX=0.5;exitY=0;exitDx=0;exitDy=0;" edge="1" parent="pKWMEKCfFmDl4arv5pSS-1" source="pKWMEKCfFmDl4arv5pSS-18" target="pKWMEKCfFmDl4arv5pSS-4">
                    <mxGeometry relative="1" as="geometry">
                        <Array as="points">
                            <mxPoint x="3023.06" y="637.6400000000001"/>
                            <mxPoint x="3047.06" y="637.6400000000001"/>
                        </Array>
                    </mxGeometry>
                </mxCell>
                <mxCell id="pKWMEKCfFmDl4arv5pSS-8" value="" style="ellipse;whiteSpace=wrap;html=1;aspect=fixed;fillColor=#e1d5e7;strokeColor=#000000;strokeWidth=4;" vertex="1" parent="pKWMEKCfFmDl4arv5pSS-1">
                    <mxGeometry x="3025.0599999999995" y="701.0600000000002" width="40" height="40" as="geometry"/>
                </mxCell>
                <mxCell id="pKWMEKCfFmDl4arv5pSS-9" value="" style="endArrow=none;html=1;rounded=0;strokeColor=#000000;entryX=0.5;entryY=0;entryDx=0;entryDy=0;exitX=0.5;exitY=1;exitDx=0;exitDy=0;strokeWidth=4;" edge="1" parent="pKWMEKCfFmDl4arv5pSS-1" source="pKWMEKCfFmDl4arv5pSS-8" target="pKWMEKCfFmDl4arv5pSS-8">
                    <mxGeometry width="50" height="50" relative="1" as="geometry">
                        <mxPoint x="3057.47" y="664.0500000000002" as="sourcePoint"/>
                        <mxPoint x="3107.47" y="614.05" as="targetPoint"/>
                    </mxGeometry>
                </mxCell>
                <mxCell id="pKWMEKCfFmDl4arv5pSS-10" style="edgeStyle=orthogonalEdgeStyle;rounded=1;jumpStyle=none;jumpSize=6;orthogonalLoop=1;jettySize=auto;html=1;entryX=0.5;entryY=0;entryDx=0;entryDy=0;startArrow=none;startFill=0;endArrow=classic;endFill=1;startSize=1;endSize=1;strokeColor=#000000;strokeWidth=4;" edge="1" parent="pKWMEKCfFmDl4arv5pSS-1" source="pKWMEKCfFmDl4arv5pSS-4" target="pKWMEKCfFmDl4arv5pSS-8">
                    <mxGeometry relative="1" as="geometry"/>
                </mxCell>
                <mxCell id="pKWMEKCfFmDl4arv5pSS-11" value="" style="endArrow=none;html=1;rounded=0;strokeColor=#000000;entryX=0;entryY=0.5;entryDx=0;entryDy=0;exitX=1;exitY=0.5;exitDx=0;exitDy=0;strokeWidth=4;" edge="1" parent="pKWMEKCfFmDl4arv5pSS-1" source="pKWMEKCfFmDl4arv5pSS-8" target="pKWMEKCfFmDl4arv5pSS-8">
                    <mxGeometry width="50" height="50" relative="1" as="geometry">
                        <mxPoint x="3107.47" y="564.05" as="sourcePoint"/>
                        <mxPoint x="3107.47" y="504.05" as="targetPoint"/>
                    </mxGeometry>
                </mxCell>
                <mxCell id="pKWMEKCfFmDl4arv5pSS-12" value="" style="rounded=0;whiteSpace=wrap;html=1;glass=0;strokeColor=#000000;strokeWidth=4;fillColor=#FFD966;" vertex="1" parent="pKWMEKCfFmDl4arv5pSS-1">
                    <mxGeometry x="3105.0599999999995" y="665.0600000000002" width="20" height="36" as="geometry"/>
                </mxCell>
                <mxCell id="pKWMEKCfFmDl4arv5pSS-13" value="" style="endArrow=none;html=1;rounded=0;startSize=1;endSize=1;strokeColor=#000000;strokeWidth=4;jumpStyle=none;jumpSize=6;" edge="1" parent="pKWMEKCfFmDl4arv5pSS-1">
                    <mxGeometry width="50" height="50" relative="1" as="geometry">
                        <mxPoint x="3105.059999999996" y="701.0599999999995" as="sourcePoint"/>
                        <mxPoint x="3115.059999999996" y="690.5599999999995" as="targetPoint"/>
                    </mxGeometry>
                </mxCell>
                <mxCell id="pKWMEKCfFmDl4arv5pSS-14" value="" style="endArrow=none;html=1;rounded=0;startSize=1;endSize=1;strokeColor=#000000;strokeWidth=4;jumpStyle=none;jumpSize=6;" edge="1" parent="pKWMEKCfFmDl4arv5pSS-1">
                    <mxGeometry width="50" height="50" relative="1" as="geometry">
                        <mxPoint x="3115.059999999996" y="690.5599999999995" as="sourcePoint"/>
                        <mxPoint x="3125.059999999996" y="700.5599999999995" as="targetPoint"/>
                    </mxGeometry>
                </mxCell>
                <mxCell id="pKWMEKCfFmDl4arv5pSS-15" style="edgeStyle=orthogonalEdgeStyle;rounded=1;jumpStyle=none;jumpSize=6;orthogonalLoop=1;jettySize=auto;html=1;entryX=0;entryY=0.5;entryDx=0;entryDy=0;startArrow=none;startFill=0;endArrow=classic;endFill=1;startSize=1;endSize=1;strokeColor=#000000;strokeWidth=3;" edge="1" parent="pKWMEKCfFmDl4arv5pSS-1" source="pKWMEKCfFmDl4arv5pSS-8" target="pKWMEKCfFmDl4arv5pSS-12">
                    <mxGeometry relative="1" as="geometry">
                        <Array as="points">
                            <mxPoint x="3085.06" y="720.6400000000001"/>
                            <mxPoint x="3085.06" y="682.6400000000001"/>
                        </Array>
                        <mxPoint x="3091.1775000000002" y="683.0125" as="targetPoint"/>
                    </mxGeometry>
                </mxCell>
                <mxCell id="pKWMEKCfFmDl4arv5pSS-16" style="rounded=1;orthogonalLoop=1;jettySize=auto;html=1;exitX=0;exitY=0.5;exitDx=0;exitDy=0;entryX=0;entryY=0.5;entryDx=0;entryDy=0;fontSize=30;fontColor=#990000;startArrow=none;startFill=0;endArrow=classic;endFill=1;strokeWidth=3;edgeStyle=orthogonalEdgeStyle;" edge="1" parent="pKWMEKCfFmDl4arv5pSS-1" source="pKWMEKCfFmDl4arv5pSS-3" target="pKWMEKCfFmDl4arv5pSS-8">
                    <mxGeometry relative="1" as="geometry">
                        <Array as="points">
                            <mxPoint x="2990.06" y="672.6400000000001"/>
                            <mxPoint x="2990.06" y="720.6400000000001"/>
                        </Array>
                    </mxGeometry>
                </mxCell>
                <mxCell id="pKWMEKCfFmDl4arv5pSS-17" value="" style="endArrow=classic;html=1;rounded=1;fontSize=12;fontColor=#000000;startSize=0;endSize=0;strokeWidth=3;entryX=0.5;entryY=0;entryDx=0;entryDy=0;exitX=0.497;exitY=-0.001;exitDx=0;exitDy=0;exitPerimeter=0;jumpStyle=arc;" edge="1" parent="pKWMEKCfFmDl4arv5pSS-1" target="pKWMEKCfFmDl4arv5pSS-4">
                    <mxGeometry width="50" height="50" relative="1" as="geometry">
                        <mxPoint x="3066.164890000001" y="585.4366299999992" as="sourcePoint"/>
                        <mxPoint x="3077.475" y="585.6400000000001" as="targetPoint"/>
                    </mxGeometry>
                </mxCell>
                <mxCell id="pKWMEKCfFmDl4arv5pSS-18" value="" style="whiteSpace=wrap;html=1;aspect=fixed;fillColor=#dae8fc;strokeColor=#000000;strokeWidth=4;" vertex="1" parent="pKWMEKCfFmDl4arv5pSS-1">
                    <mxGeometry x="3009.0199999999995" y="658.5500000000002" width="27.5" height="27.5" as="geometry"/>
                </mxCell>
                <mxCell id="pKWMEKCfFmDl4arv5pSS-19" value="Processing Engine (PE)" style="text;html=1;strokeColor=none;fillColor=none;align=center;verticalAlign=middle;whiteSpace=wrap;rounded=0;fontStyle=1;fontSize=15;" vertex="1" parent="pKWMEKCfFmDl4arv5pSS-1">
                    <mxGeometry x="3026.69" y="785.6400000000001" width="60" height="20" as="geometry"/>
                </mxCell>
                <mxCell id="pKWMEKCfFmDl4arv5pSS-20" value="" style="ellipse;whiteSpace=wrap;html=1;aspect=fixed;fontSize=30;strokeColor=#000000;fillColor=#FFD966;opacity=80;" vertex="1" parent="pKWMEKCfFmDl4arv5pSS-1">
                    <mxGeometry x="3181.77" y="585.7800000000002" width="173.37" height="173.37" as="geometry"/>
                </mxCell>
                <mxCell id="pKWMEKCfFmDl4arv5pSS-21" value="" style="ellipse;whiteSpace=wrap;html=1;aspect=fixed;fillColor=#67AB9F;strokeWidth=4;strokeColor=#000000;" vertex="1" parent="pKWMEKCfFmDl4arv5pSS-1">
                    <mxGeometry x="3258.4599999999996" y="617.72" width="40" height="40" as="geometry"/>
                </mxCell>
                <mxCell id="pKWMEKCfFmDl4arv5pSS-22" value="" style="endArrow=none;html=1;rounded=0;strokeColor=#000000;strokeWidth=4;exitX=0;exitY=0;exitDx=0;exitDy=0;entryX=1;entryY=1;entryDx=0;entryDy=0;" edge="1" parent="pKWMEKCfFmDl4arv5pSS-1" source="pKWMEKCfFmDl4arv5pSS-21" target="pKWMEKCfFmDl4arv5pSS-21">
                    <mxGeometry width="50" height="50" relative="1" as="geometry">
                        <mxPoint x="3274.24" y="649.47" as="sourcePoint"/>
                        <mxPoint x="3299.24" y="618.22" as="targetPoint"/>
                    </mxGeometry>
                </mxCell>
                <mxCell id="pKWMEKCfFmDl4arv5pSS-23" value="" style="endArrow=none;html=1;rounded=0;strokeColor=#000000;strokeWidth=4;exitX=0;exitY=1;exitDx=0;exitDy=0;entryX=1;entryY=0;entryDx=0;entryDy=0;" edge="1" parent="pKWMEKCfFmDl4arv5pSS-1" source="pKWMEKCfFmDl4arv5pSS-21" target="pKWMEKCfFmDl4arv5pSS-21">
                    <mxGeometry width="50" height="50" relative="1" as="geometry">
                        <mxPoint x="3230.097864376269" y="594.2923304703363" as="sourcePoint"/>
                        <mxPoint x="3258.551484117605" y="629.4334181196966" as="targetPoint"/>
                    </mxGeometry>
                </mxCell>
                <mxCell id="pKWMEKCfFmDl4arv5pSS-24" style="edgeStyle=orthogonalEdgeStyle;jumpStyle=none;jumpSize=6;orthogonalLoop=1;jettySize=auto;html=1;entryX=0;entryY=0.5;entryDx=0;entryDy=0;startArrow=none;startFill=0;endArrow=classic;endFill=1;startSize=1;endSize=1;strokeColor=#000000;strokeWidth=3;rounded=1;exitX=0.5;exitY=0;exitDx=0;exitDy=0;" edge="1" parent="pKWMEKCfFmDl4arv5pSS-1" source="pKWMEKCfFmDl4arv5pSS-35" target="pKWMEKCfFmDl4arv5pSS-21">
                    <mxGeometry relative="1" as="geometry">
                        <Array as="points">
                            <mxPoint x="3234.83" y="637.8100000000002"/>
                            <mxPoint x="3258.83" y="637.8100000000002"/>
                        </Array>
                    </mxGeometry>
                </mxCell>
                <mxCell id="pKWMEKCfFmDl4arv5pSS-25" value="" style="ellipse;whiteSpace=wrap;html=1;aspect=fixed;fillColor=#e1d5e7;strokeColor=#000000;strokeWidth=4;" vertex="1" parent="pKWMEKCfFmDl4arv5pSS-1">
                    <mxGeometry x="3236.8299999999995" y="701.2300000000002" width="40" height="40" as="geometry"/>
                </mxCell>
                <mxCell id="pKWMEKCfFmDl4arv5pSS-26" value="" style="endArrow=none;html=1;rounded=0;strokeColor=#000000;entryX=0.5;entryY=0;entryDx=0;entryDy=0;exitX=0.5;exitY=1;exitDx=0;exitDy=0;strokeWidth=4;" edge="1" parent="pKWMEKCfFmDl4arv5pSS-1" source="pKWMEKCfFmDl4arv5pSS-25" target="pKWMEKCfFmDl4arv5pSS-25">
                    <mxGeometry width="50" height="50" relative="1" as="geometry">
                        <mxPoint x="3269.24" y="664.22" as="sourcePoint"/>
                        <mxPoint x="3319.24" y="614.22" as="targetPoint"/>
                    </mxGeometry>
                </mxCell>
                <mxCell id="pKWMEKCfFmDl4arv5pSS-27" style="edgeStyle=orthogonalEdgeStyle;rounded=1;jumpStyle=none;jumpSize=6;orthogonalLoop=1;jettySize=auto;html=1;entryX=0.5;entryY=0;entryDx=0;entryDy=0;startArrow=none;startFill=0;endArrow=classic;endFill=1;startSize=1;endSize=1;strokeColor=#000000;strokeWidth=4;" edge="1" parent="pKWMEKCfFmDl4arv5pSS-1" source="pKWMEKCfFmDl4arv5pSS-21" target="pKWMEKCfFmDl4arv5pSS-25">
                    <mxGeometry relative="1" as="geometry"/>
                </mxCell>
                <mxCell id="pKWMEKCfFmDl4arv5pSS-28" value="" style="endArrow=none;html=1;rounded=0;strokeColor=#000000;entryX=0;entryY=0.5;entryDx=0;entryDy=0;exitX=1;exitY=0.5;exitDx=0;exitDy=0;strokeWidth=4;" edge="1" parent="pKWMEKCfFmDl4arv5pSS-1" source="pKWMEKCfFmDl4arv5pSS-25" target="pKWMEKCfFmDl4arv5pSS-25">
                    <mxGeometry width="50" height="50" relative="1" as="geometry">
                        <mxPoint x="3319.24" y="564.22" as="sourcePoint"/>
                        <mxPoint x="3319.24" y="504.21999999999997" as="targetPoint"/>
                    </mxGeometry>
                </mxCell>
                <mxCell id="pKWMEKCfFmDl4arv5pSS-29" value="" style="rounded=0;whiteSpace=wrap;html=1;glass=0;strokeColor=#000000;strokeWidth=4;fillColor=#FFD966;" vertex="1" parent="pKWMEKCfFmDl4arv5pSS-1">
                    <mxGeometry x="3316.8299999999995" y="665.2300000000002" width="20" height="36" as="geometry"/>
                </mxCell>
                <mxCell id="pKWMEKCfFmDl4arv5pSS-30" value="" style="endArrow=none;html=1;rounded=0;startSize=1;endSize=1;strokeColor=#000000;strokeWidth=4;jumpStyle=none;jumpSize=6;" edge="1" parent="pKWMEKCfFmDl4arv5pSS-1">
                    <mxGeometry width="50" height="50" relative="1" as="geometry">
                        <mxPoint x="3316.829999999997" y="701.2299999999996" as="sourcePoint"/>
                        <mxPoint x="3326.829999999997" y="690.7299999999996" as="targetPoint"/>
                    </mxGeometry>
                </mxCell>
                <mxCell id="pKWMEKCfFmDl4arv5pSS-31" value="" style="endArrow=none;html=1;rounded=0;startSize=1;endSize=1;strokeColor=#000000;strokeWidth=4;jumpStyle=none;jumpSize=6;" edge="1" parent="pKWMEKCfFmDl4arv5pSS-1">
                    <mxGeometry width="50" height="50" relative="1" as="geometry">
                        <mxPoint x="3326.829999999997" y="690.7299999999996" as="sourcePoint"/>
                        <mxPoint x="3336.829999999997" y="700.7299999999996" as="targetPoint"/>
                    </mxGeometry>
                </mxCell>
                <mxCell id="pKWMEKCfFmDl4arv5pSS-32" style="edgeStyle=orthogonalEdgeStyle;rounded=1;jumpStyle=none;jumpSize=6;orthogonalLoop=1;jettySize=auto;html=1;entryX=0;entryY=0.5;entryDx=0;entryDy=0;startArrow=none;startFill=0;endArrow=classic;endFill=1;startSize=1;endSize=1;strokeColor=#000000;strokeWidth=3;" edge="1" parent="pKWMEKCfFmDl4arv5pSS-1" source="pKWMEKCfFmDl4arv5pSS-25" target="pKWMEKCfFmDl4arv5pSS-29">
                    <mxGeometry relative="1" as="geometry">
                        <Array as="points">
                            <mxPoint x="3296.83" y="720.8100000000002"/>
                            <mxPoint x="3296.83" y="682.8100000000002"/>
                        </Array>
                        <mxPoint x="3302.9475" y="683.1825000000001" as="targetPoint"/>
                    </mxGeometry>
                </mxCell>
                <mxCell id="pKWMEKCfFmDl4arv5pSS-33" style="rounded=1;orthogonalLoop=1;jettySize=auto;html=1;exitX=0;exitY=0.5;exitDx=0;exitDy=0;entryX=0;entryY=0.5;entryDx=0;entryDy=0;fontSize=30;fontColor=#990000;startArrow=none;startFill=0;endArrow=classic;endFill=1;strokeWidth=3;edgeStyle=orthogonalEdgeStyle;" edge="1" parent="pKWMEKCfFmDl4arv5pSS-1" source="pKWMEKCfFmDl4arv5pSS-20" target="pKWMEKCfFmDl4arv5pSS-25">
                    <mxGeometry relative="1" as="geometry">
                        <Array as="points">
                            <mxPoint x="3201.83" y="672.8100000000002"/>
                            <mxPoint x="3201.83" y="720.8100000000002"/>
                        </Array>
                    </mxGeometry>
                </mxCell>
                <mxCell id="pKWMEKCfFmDl4arv5pSS-34" value="" style="endArrow=classic;html=1;rounded=1;fontSize=12;fontColor=#000000;startSize=0;endSize=0;strokeWidth=3;entryX=0.5;entryY=0;entryDx=0;entryDy=0;exitX=0.497;exitY=-0.001;exitDx=0;exitDy=0;exitPerimeter=0;jumpStyle=arc;" edge="1" parent="pKWMEKCfFmDl4arv5pSS-1" target="pKWMEKCfFmDl4arv5pSS-21">
                    <mxGeometry width="50" height="50" relative="1" as="geometry">
                        <mxPoint x="3277.9348899999986" y="585.6066300000002" as="sourcePoint"/>
                        <mxPoint x="3289.245" y="585.8100000000002" as="targetPoint"/>
                    </mxGeometry>
                </mxCell>
                <mxCell id="pKWMEKCfFmDl4arv5pSS-35" value="" style="whiteSpace=wrap;html=1;aspect=fixed;fillColor=#dae8fc;strokeColor=#000000;strokeWidth=4;" vertex="1" parent="pKWMEKCfFmDl4arv5pSS-1">
                    <mxGeometry x="3220.7899999999995" y="658.72" width="27.5" height="27.5" as="geometry"/>
                </mxCell>
                <mxCell id="pKWMEKCfFmDl4arv5pSS-36" value="Processing Engine (PE)" style="text;html=1;strokeColor=none;fillColor=none;align=center;verticalAlign=middle;whiteSpace=wrap;rounded=0;fontStyle=1;fontSize=15;" vertex="1" parent="pKWMEKCfFmDl4arv5pSS-1">
                    <mxGeometry x="3238.46" y="785.8100000000002" width="60" height="20" as="geometry"/>
                </mxCell>
                <mxCell id="pKWMEKCfFmDl4arv5pSS-37" value="" style="ellipse;whiteSpace=wrap;html=1;aspect=fixed;fontSize=30;strokeColor=#000000;fillColor=#FFD966;opacity=80;" vertex="1" parent="pKWMEKCfFmDl4arv5pSS-1">
                    <mxGeometry x="2971.09" y="848.28" width="173.37" height="173.37" as="geometry"/>
                </mxCell>
                <mxCell id="pKWMEKCfFmDl4arv5pSS-38" value="" style="ellipse;whiteSpace=wrap;html=1;aspect=fixed;fillColor=#67AB9F;strokeWidth=4;strokeColor=#000000;" vertex="1" parent="pKWMEKCfFmDl4arv5pSS-1">
                    <mxGeometry x="3047.7799999999997" y="880.22" width="40" height="40" as="geometry"/>
                </mxCell>
                <mxCell id="pKWMEKCfFmDl4arv5pSS-39" value="" style="endArrow=none;html=1;rounded=0;strokeColor=#000000;strokeWidth=4;exitX=0;exitY=0;exitDx=0;exitDy=0;entryX=1;entryY=1;entryDx=0;entryDy=0;" edge="1" parent="pKWMEKCfFmDl4arv5pSS-1" source="pKWMEKCfFmDl4arv5pSS-38" target="pKWMEKCfFmDl4arv5pSS-38">
                    <mxGeometry width="50" height="50" relative="1" as="geometry">
                        <mxPoint x="3063.56" y="911.97" as="sourcePoint"/>
                        <mxPoint x="3088.56" y="880.72" as="targetPoint"/>
                    </mxGeometry>
                </mxCell>
                <mxCell id="pKWMEKCfFmDl4arv5pSS-40" value="" style="endArrow=none;html=1;rounded=0;strokeColor=#000000;strokeWidth=4;exitX=0;exitY=1;exitDx=0;exitDy=0;entryX=1;entryY=0;entryDx=0;entryDy=0;" edge="1" parent="pKWMEKCfFmDl4arv5pSS-1" source="pKWMEKCfFmDl4arv5pSS-38" target="pKWMEKCfFmDl4arv5pSS-38">
                    <mxGeometry width="50" height="50" relative="1" as="geometry">
                        <mxPoint x="3019.4178643762693" y="856.7923304703363" as="sourcePoint"/>
                        <mxPoint x="3047.871484117605" y="891.9334181196966" as="targetPoint"/>
                    </mxGeometry>
                </mxCell>
                <mxCell id="pKWMEKCfFmDl4arv5pSS-41" style="edgeStyle=orthogonalEdgeStyle;jumpStyle=none;jumpSize=6;orthogonalLoop=1;jettySize=auto;html=1;entryX=0;entryY=0.5;entryDx=0;entryDy=0;startArrow=none;startFill=0;endArrow=classic;endFill=1;startSize=1;endSize=1;strokeColor=#000000;strokeWidth=3;rounded=1;exitX=0.5;exitY=0;exitDx=0;exitDy=0;" edge="1" parent="pKWMEKCfFmDl4arv5pSS-1" source="pKWMEKCfFmDl4arv5pSS-52" target="pKWMEKCfFmDl4arv5pSS-38">
                    <mxGeometry relative="1" as="geometry">
                        <Array as="points">
                            <mxPoint x="3024.15" y="900.3100000000002"/>
                            <mxPoint x="3048.15" y="900.3100000000002"/>
                        </Array>
                    </mxGeometry>
                </mxCell>
                <mxCell id="pKWMEKCfFmDl4arv5pSS-42" value="" style="ellipse;whiteSpace=wrap;html=1;aspect=fixed;fillColor=#e1d5e7;strokeColor=#000000;strokeWidth=4;" vertex="1" parent="pKWMEKCfFmDl4arv5pSS-1">
                    <mxGeometry x="3026.1499999999996" y="963.7300000000002" width="40" height="40" as="geometry"/>
                </mxCell>
                <mxCell id="pKWMEKCfFmDl4arv5pSS-43" value="" style="endArrow=none;html=1;rounded=0;strokeColor=#000000;entryX=0.5;entryY=0;entryDx=0;entryDy=0;exitX=0.5;exitY=1;exitDx=0;exitDy=0;strokeWidth=4;" edge="1" parent="pKWMEKCfFmDl4arv5pSS-1" source="pKWMEKCfFmDl4arv5pSS-42" target="pKWMEKCfFmDl4arv5pSS-42">
                    <mxGeometry width="50" height="50" relative="1" as="geometry">
                        <mxPoint x="3058.56" y="926.72" as="sourcePoint"/>
                        <mxPoint x="3108.56" y="876.7199999999998" as="targetPoint"/>
                    </mxGeometry>
                </mxCell>
                <mxCell id="pKWMEKCfFmDl4arv5pSS-44" style="edgeStyle=orthogonalEdgeStyle;rounded=1;jumpStyle=none;jumpSize=6;orthogonalLoop=1;jettySize=auto;html=1;entryX=0.5;entryY=0;entryDx=0;entryDy=0;startArrow=none;startFill=0;endArrow=classic;endFill=1;startSize=1;endSize=1;strokeColor=#000000;strokeWidth=4;" edge="1" parent="pKWMEKCfFmDl4arv5pSS-1" source="pKWMEKCfFmDl4arv5pSS-38" target="pKWMEKCfFmDl4arv5pSS-42">
                    <mxGeometry relative="1" as="geometry"/>
                </mxCell>
                <mxCell id="pKWMEKCfFmDl4arv5pSS-45" value="" style="endArrow=none;html=1;rounded=0;strokeColor=#000000;entryX=0;entryY=0.5;entryDx=0;entryDy=0;exitX=1;exitY=0.5;exitDx=0;exitDy=0;strokeWidth=4;" edge="1" parent="pKWMEKCfFmDl4arv5pSS-1" source="pKWMEKCfFmDl4arv5pSS-42" target="pKWMEKCfFmDl4arv5pSS-42">
                    <mxGeometry width="50" height="50" relative="1" as="geometry">
                        <mxPoint x="3108.56" y="826.72" as="sourcePoint"/>
                        <mxPoint x="3108.56" y="766.72" as="targetPoint"/>
                    </mxGeometry>
                </mxCell>
                <mxCell id="pKWMEKCfFmDl4arv5pSS-46" value="" style="rounded=0;whiteSpace=wrap;html=1;glass=0;strokeColor=#000000;strokeWidth=4;fillColor=#FFD966;" vertex="1" parent="pKWMEKCfFmDl4arv5pSS-1">
                    <mxGeometry x="3106.1499999999996" y="927.7300000000002" width="20" height="36" as="geometry"/>
                </mxCell>
                <mxCell id="pKWMEKCfFmDl4arv5pSS-47" value="" style="endArrow=none;html=1;rounded=0;startSize=1;endSize=1;strokeColor=#000000;strokeWidth=4;jumpStyle=none;jumpSize=6;" edge="1" parent="pKWMEKCfFmDl4arv5pSS-1">
                    <mxGeometry width="50" height="50" relative="1" as="geometry">
                        <mxPoint x="3106.1499999999987" y="963.7299999999996" as="sourcePoint"/>
                        <mxPoint x="3116.1499999999987" y="953.2299999999996" as="targetPoint"/>
                    </mxGeometry>
                </mxCell>
                <mxCell id="pKWMEKCfFmDl4arv5pSS-48" value="" style="endArrow=none;html=1;rounded=0;startSize=1;endSize=1;strokeColor=#000000;strokeWidth=4;jumpStyle=none;jumpSize=6;" edge="1" parent="pKWMEKCfFmDl4arv5pSS-1">
                    <mxGeometry width="50" height="50" relative="1" as="geometry">
                        <mxPoint x="3116.1499999999987" y="953.2299999999996" as="sourcePoint"/>
                        <mxPoint x="3126.1499999999987" y="963.2299999999996" as="targetPoint"/>
                    </mxGeometry>
                </mxCell>
                <mxCell id="pKWMEKCfFmDl4arv5pSS-49" style="edgeStyle=orthogonalEdgeStyle;rounded=1;jumpStyle=none;jumpSize=6;orthogonalLoop=1;jettySize=auto;html=1;entryX=0;entryY=0.5;entryDx=0;entryDy=0;startArrow=none;startFill=0;endArrow=classic;endFill=1;startSize=1;endSize=1;strokeColor=#000000;strokeWidth=3;" edge="1" parent="pKWMEKCfFmDl4arv5pSS-1" source="pKWMEKCfFmDl4arv5pSS-42" target="pKWMEKCfFmDl4arv5pSS-46">
                    <mxGeometry relative="1" as="geometry">
                        <Array as="points">
                            <mxPoint x="3086.15" y="983.3100000000002"/>
                            <mxPoint x="3086.15" y="945.3100000000002"/>
                        </Array>
                        <mxPoint x="3092.2675000000004" y="945.6825000000001" as="targetPoint"/>
                    </mxGeometry>
                </mxCell>
                <mxCell id="pKWMEKCfFmDl4arv5pSS-50" style="rounded=1;orthogonalLoop=1;jettySize=auto;html=1;exitX=0;exitY=0.5;exitDx=0;exitDy=0;entryX=0;entryY=0.5;entryDx=0;entryDy=0;fontSize=30;fontColor=#990000;startArrow=none;startFill=0;endArrow=classic;endFill=1;strokeWidth=3;edgeStyle=orthogonalEdgeStyle;" edge="1" parent="pKWMEKCfFmDl4arv5pSS-1" source="pKWMEKCfFmDl4arv5pSS-37" target="pKWMEKCfFmDl4arv5pSS-42">
                    <mxGeometry relative="1" as="geometry">
                        <Array as="points">
                            <mxPoint x="2991.15" y="935.3100000000002"/>
                            <mxPoint x="2991.15" y="983.3100000000002"/>
                        </Array>
                    </mxGeometry>
                </mxCell>
                <mxCell id="pKWMEKCfFmDl4arv5pSS-51" value="" style="endArrow=classic;html=1;rounded=1;fontSize=12;fontColor=#000000;startSize=0;endSize=0;strokeWidth=3;entryX=0.5;entryY=0;entryDx=0;entryDy=0;exitX=0.497;exitY=-0.001;exitDx=0;exitDy=0;exitPerimeter=0;jumpStyle=arc;" edge="1" parent="pKWMEKCfFmDl4arv5pSS-1" target="pKWMEKCfFmDl4arv5pSS-38">
                    <mxGeometry width="50" height="50" relative="1" as="geometry">
                        <mxPoint x="3067.25489" y="848.1066300000002" as="sourcePoint"/>
                        <mxPoint x="3078.565" y="848.3100000000002" as="targetPoint"/>
                    </mxGeometry>
                </mxCell>
                <mxCell id="pKWMEKCfFmDl4arv5pSS-52" value="" style="whiteSpace=wrap;html=1;aspect=fixed;fillColor=#dae8fc;strokeColor=#000000;strokeWidth=4;" vertex="1" parent="pKWMEKCfFmDl4arv5pSS-1">
                    <mxGeometry x="3010.1099999999997" y="921.22" width="27.5" height="27.5" as="geometry"/>
                </mxCell>
                <mxCell id="pKWMEKCfFmDl4arv5pSS-53" value="Processing Engine (PE)" style="text;html=1;strokeColor=none;fillColor=none;align=center;verticalAlign=middle;whiteSpace=wrap;rounded=0;fontStyle=1;fontSize=15;" vertex="1" parent="pKWMEKCfFmDl4arv5pSS-1">
                    <mxGeometry x="3027.78" y="1048.3100000000002" width="60" height="20" as="geometry"/>
                </mxCell>
                <mxCell id="pKWMEKCfFmDl4arv5pSS-54" value="" style="ellipse;whiteSpace=wrap;html=1;aspect=fixed;fontSize=30;strokeColor=#000000;fillColor=#FFD966;opacity=80;" vertex="1" parent="pKWMEKCfFmDl4arv5pSS-1">
                    <mxGeometry x="3182.86" y="848.45" width="173.37" height="173.37" as="geometry"/>
                </mxCell>
                <mxCell id="pKWMEKCfFmDl4arv5pSS-55" value="" style="ellipse;whiteSpace=wrap;html=1;aspect=fixed;fillColor=#67AB9F;strokeWidth=4;strokeColor=#000000;" vertex="1" parent="pKWMEKCfFmDl4arv5pSS-1">
                    <mxGeometry x="3259.5499999999997" y="880.3900000000001" width="40" height="40" as="geometry"/>
                </mxCell>
                <mxCell id="pKWMEKCfFmDl4arv5pSS-56" value="" style="endArrow=none;html=1;rounded=0;strokeColor=#000000;strokeWidth=4;exitX=0;exitY=0;exitDx=0;exitDy=0;entryX=1;entryY=1;entryDx=0;entryDy=0;" edge="1" parent="pKWMEKCfFmDl4arv5pSS-1" source="pKWMEKCfFmDl4arv5pSS-55" target="pKWMEKCfFmDl4arv5pSS-55">
                    <mxGeometry width="50" height="50" relative="1" as="geometry">
                        <mxPoint x="3275.33" y="912.1400000000001" as="sourcePoint"/>
                        <mxPoint x="3300.33" y="880.8900000000001" as="targetPoint"/>
                    </mxGeometry>
                </mxCell>
                <mxCell id="pKWMEKCfFmDl4arv5pSS-57" value="" style="endArrow=none;html=1;rounded=0;strokeColor=#000000;strokeWidth=4;exitX=0;exitY=1;exitDx=0;exitDy=0;entryX=1;entryY=0;entryDx=0;entryDy=0;" edge="1" parent="pKWMEKCfFmDl4arv5pSS-1" source="pKWMEKCfFmDl4arv5pSS-55" target="pKWMEKCfFmDl4arv5pSS-55">
                    <mxGeometry width="50" height="50" relative="1" as="geometry">
                        <mxPoint x="3231.1878643762693" y="856.9623304703362" as="sourcePoint"/>
                        <mxPoint x="3259.641484117605" y="892.1034181196967" as="targetPoint"/>
                    </mxGeometry>
                </mxCell>
                <mxCell id="pKWMEKCfFmDl4arv5pSS-58" style="edgeStyle=orthogonalEdgeStyle;jumpStyle=none;jumpSize=6;orthogonalLoop=1;jettySize=auto;html=1;entryX=0;entryY=0.5;entryDx=0;entryDy=0;startArrow=none;startFill=0;endArrow=classic;endFill=1;startSize=1;endSize=1;strokeColor=#000000;strokeWidth=3;rounded=1;exitX=0.5;exitY=0;exitDx=0;exitDy=0;" edge="1" parent="pKWMEKCfFmDl4arv5pSS-1" source="pKWMEKCfFmDl4arv5pSS-69" target="pKWMEKCfFmDl4arv5pSS-55">
                    <mxGeometry relative="1" as="geometry">
                        <Array as="points">
                            <mxPoint x="3235.92" y="900.48"/>
                            <mxPoint x="3259.92" y="900.48"/>
                        </Array>
                    </mxGeometry>
                </mxCell>
                <mxCell id="pKWMEKCfFmDl4arv5pSS-59" value="" style="ellipse;whiteSpace=wrap;html=1;aspect=fixed;fillColor=#e1d5e7;strokeColor=#000000;strokeWidth=4;" vertex="1" parent="pKWMEKCfFmDl4arv5pSS-1">
                    <mxGeometry x="3237.9199999999996" y="963.9000000000001" width="40" height="40" as="geometry"/>
                </mxCell>
                <mxCell id="pKWMEKCfFmDl4arv5pSS-60" value="" style="endArrow=none;html=1;rounded=0;strokeColor=#000000;entryX=0.5;entryY=0;entryDx=0;entryDy=0;exitX=0.5;exitY=1;exitDx=0;exitDy=0;strokeWidth=4;" edge="1" parent="pKWMEKCfFmDl4arv5pSS-1" source="pKWMEKCfFmDl4arv5pSS-59" target="pKWMEKCfFmDl4arv5pSS-59">
                    <mxGeometry width="50" height="50" relative="1" as="geometry">
                        <mxPoint x="3270.33" y="926.8900000000001" as="sourcePoint"/>
                        <mxPoint x="3320.33" y="876.8899999999999" as="targetPoint"/>
                    </mxGeometry>
                </mxCell>
                <mxCell id="pKWMEKCfFmDl4arv5pSS-61" style="edgeStyle=orthogonalEdgeStyle;rounded=1;jumpStyle=none;jumpSize=6;orthogonalLoop=1;jettySize=auto;html=1;entryX=0.5;entryY=0;entryDx=0;entryDy=0;startArrow=none;startFill=0;endArrow=classic;endFill=1;startSize=1;endSize=1;strokeColor=#000000;strokeWidth=4;" edge="1" parent="pKWMEKCfFmDl4arv5pSS-1" source="pKWMEKCfFmDl4arv5pSS-55" target="pKWMEKCfFmDl4arv5pSS-59">
                    <mxGeometry relative="1" as="geometry"/>
                </mxCell>
                <mxCell id="pKWMEKCfFmDl4arv5pSS-62" value="" style="endArrow=none;html=1;rounded=0;strokeColor=#000000;entryX=0;entryY=0.5;entryDx=0;entryDy=0;exitX=1;exitY=0.5;exitDx=0;exitDy=0;strokeWidth=4;" edge="1" parent="pKWMEKCfFmDl4arv5pSS-1" source="pKWMEKCfFmDl4arv5pSS-59" target="pKWMEKCfFmDl4arv5pSS-59">
                    <mxGeometry width="50" height="50" relative="1" as="geometry">
                        <mxPoint x="3320.33" y="826.8899999999999" as="sourcePoint"/>
                        <mxPoint x="3320.33" y="766.8899999999999" as="targetPoint"/>
                    </mxGeometry>
                </mxCell>
                <mxCell id="pKWMEKCfFmDl4arv5pSS-63" value="" style="rounded=0;whiteSpace=wrap;html=1;glass=0;strokeColor=#000000;strokeWidth=4;fillColor=#FFD966;" vertex="1" parent="pKWMEKCfFmDl4arv5pSS-1">
                    <mxGeometry x="3317.9199999999996" y="927.9000000000001" width="20" height="36" as="geometry"/>
                </mxCell>
                <mxCell id="pKWMEKCfFmDl4arv5pSS-64" value="" style="endArrow=none;html=1;rounded=0;startSize=1;endSize=1;strokeColor=#000000;strokeWidth=4;jumpStyle=none;jumpSize=6;" edge="1" parent="pKWMEKCfFmDl4arv5pSS-1">
                    <mxGeometry width="50" height="50" relative="1" as="geometry">
                        <mxPoint x="3317.9199999999964" y="963.8999999999996" as="sourcePoint"/>
                        <mxPoint x="3327.9199999999964" y="953.4000000000005" as="targetPoint"/>
                    </mxGeometry>
                </mxCell>
                <mxCell id="pKWMEKCfFmDl4arv5pSS-65" value="" style="endArrow=none;html=1;rounded=0;startSize=1;endSize=1;strokeColor=#000000;strokeWidth=4;jumpStyle=none;jumpSize=6;" edge="1" parent="pKWMEKCfFmDl4arv5pSS-1">
                    <mxGeometry width="50" height="50" relative="1" as="geometry">
                        <mxPoint x="3327.9199999999964" y="953.4000000000005" as="sourcePoint"/>
                        <mxPoint x="3337.9199999999964" y="963.4000000000005" as="targetPoint"/>
                    </mxGeometry>
                </mxCell>
                <mxCell id="pKWMEKCfFmDl4arv5pSS-66" style="edgeStyle=orthogonalEdgeStyle;rounded=1;jumpStyle=none;jumpSize=6;orthogonalLoop=1;jettySize=auto;html=1;entryX=0;entryY=0.5;entryDx=0;entryDy=0;startArrow=none;startFill=0;endArrow=classic;endFill=1;startSize=1;endSize=1;strokeColor=#000000;strokeWidth=3;" edge="1" parent="pKWMEKCfFmDl4arv5pSS-1" source="pKWMEKCfFmDl4arv5pSS-59" target="pKWMEKCfFmDl4arv5pSS-63">
                    <mxGeometry relative="1" as="geometry">
                        <Array as="points">
                            <mxPoint x="3297.92" y="983.48"/>
                            <mxPoint x="3297.92" y="945.48"/>
                        </Array>
                        <mxPoint x="3304.0375000000004" y="945.8525" as="targetPoint"/>
                    </mxGeometry>
                </mxCell>
                <mxCell id="pKWMEKCfFmDl4arv5pSS-67" style="rounded=1;orthogonalLoop=1;jettySize=auto;html=1;exitX=0;exitY=0.5;exitDx=0;exitDy=0;entryX=0;entryY=0.5;entryDx=0;entryDy=0;fontSize=30;fontColor=#990000;startArrow=none;startFill=0;endArrow=classic;endFill=1;strokeWidth=3;edgeStyle=orthogonalEdgeStyle;" edge="1" parent="pKWMEKCfFmDl4arv5pSS-1" source="pKWMEKCfFmDl4arv5pSS-54" target="pKWMEKCfFmDl4arv5pSS-59">
                    <mxGeometry relative="1" as="geometry">
                        <Array as="points">
                            <mxPoint x="3202.92" y="935.48"/>
                            <mxPoint x="3202.92" y="983.48"/>
                        </Array>
                    </mxGeometry>
                </mxCell>
                <mxCell id="pKWMEKCfFmDl4arv5pSS-68" value="" style="endArrow=classic;html=1;rounded=1;fontSize=12;fontColor=#000000;startSize=0;endSize=0;strokeWidth=3;entryX=0.5;entryY=0;entryDx=0;entryDy=0;exitX=0.497;exitY=-0.001;exitDx=0;exitDy=0;exitPerimeter=0;jumpStyle=arc;" edge="1" parent="pKWMEKCfFmDl4arv5pSS-1" target="pKWMEKCfFmDl4arv5pSS-55">
                    <mxGeometry width="50" height="50" relative="1" as="geometry">
                        <mxPoint x="3279.0248900000015" y="848.2766300000003" as="sourcePoint"/>
                        <mxPoint x="3290.335" y="848.48" as="targetPoint"/>
                    </mxGeometry>
                </mxCell>
                <mxCell id="pKWMEKCfFmDl4arv5pSS-69" value="" style="whiteSpace=wrap;html=1;aspect=fixed;fillColor=#dae8fc;strokeColor=#000000;strokeWidth=4;" vertex="1" parent="pKWMEKCfFmDl4arv5pSS-1">
                    <mxGeometry x="3221.8799999999997" y="921.3900000000001" width="27.5" height="27.5" as="geometry"/>
                </mxCell>
                <mxCell id="pKWMEKCfFmDl4arv5pSS-70" value="Processing Engine (PE)" style="text;html=1;strokeColor=none;fillColor=none;align=center;verticalAlign=middle;whiteSpace=wrap;rounded=0;fontStyle=1;fontSize=15;" vertex="1" parent="pKWMEKCfFmDl4arv5pSS-1">
                    <mxGeometry x="3239.55" y="1048.48" width="60" height="20" as="geometry"/>
                </mxCell>
                <mxCell id="pKWMEKCfFmDl4arv5pSS-71" value="" style="endArrow=none;dashed=1;html=1;rounded=0;strokeWidth=10;jumpStyle=arc;strokeColor=#000000;" edge="1" parent="pKWMEKCfFmDl4arv5pSS-1">
                    <mxGeometry width="50" height="50" relative="1" as="geometry">
                        <mxPoint x="3370.000000000001" y="663.2299999999996" as="sourcePoint"/>
                        <mxPoint x="3480.000000000001" y="663" as="targetPoint"/>
                    </mxGeometry>
                </mxCell>
                <mxCell id="pKWMEKCfFmDl4arv5pSS-72" value="" style="endArrow=none;dashed=1;html=1;rounded=0;strokeWidth=10;jumpStyle=arc;strokeColor=#000000;" edge="1" parent="pKWMEKCfFmDl4arv5pSS-1">
                    <mxGeometry width="50" height="50" relative="1" as="geometry">
                        <mxPoint x="3370.000000000001" y="933.96" as="sourcePoint"/>
                        <mxPoint x="3480.000000000001" y="934" as="targetPoint"/>
                    </mxGeometry>
                </mxCell>
                <mxCell id="pKWMEKCfFmDl4arv5pSS-73" value="" style="endArrow=none;dashed=1;html=1;rounded=0;strokeWidth=10;jumpStyle=arc;strokeColor=#000000;" edge="1" parent="pKWMEKCfFmDl4arv5pSS-1">
                    <mxGeometry width="50" height="50" relative="1" as="geometry">
                        <mxPoint x="2860.000000000001" y="664.3699999999999" as="sourcePoint"/>
                        <mxPoint x="2970.000000000001" y="664.1400000000003" as="targetPoint"/>
                    </mxGeometry>
                </mxCell>
                <mxCell id="pKWMEKCfFmDl4arv5pSS-74" value="" style="endArrow=none;dashed=1;html=1;rounded=0;strokeWidth=10;jumpStyle=arc;strokeColor=#000000;" edge="1" parent="pKWMEKCfFmDl4arv5pSS-1">
                    <mxGeometry width="50" height="50" relative="1" as="geometry">
                        <mxPoint x="2860.000000000001" y="935.1000000000004" as="sourcePoint"/>
                        <mxPoint x="2970.000000000001" y="935.1400000000003" as="targetPoint"/>
                    </mxGeometry>
                </mxCell>
                <mxCell id="pKWMEKCfFmDl4arv5pSS-75" value="" style="endArrow=none;dashed=1;html=1;rounded=0;strokeWidth=10;jumpStyle=arc;strokeColor=#000000;" edge="1" parent="pKWMEKCfFmDl4arv5pSS-1">
                    <mxGeometry width="50" height="50" relative="1" as="geometry">
                        <mxPoint x="3065.0599999999995" y="470" as="sourcePoint"/>
                        <mxPoint x="3065.0599999999995" y="570" as="targetPoint"/>
                    </mxGeometry>
                </mxCell>
                <mxCell id="pKWMEKCfFmDl4arv5pSS-76" value="" style="endArrow=none;dashed=1;html=1;rounded=0;strokeWidth=10;jumpStyle=arc;strokeColor=#000000;" edge="1" parent="pKWMEKCfFmDl4arv5pSS-1">
                    <mxGeometry width="50" height="50" relative="1" as="geometry">
                        <mxPoint x="3276.830000000001" y="470" as="sourcePoint"/>
                        <mxPoint x="3276.830000000001" y="570" as="targetPoint"/>
                    </mxGeometry>
                </mxCell>
                <mxCell id="pKWMEKCfFmDl4arv5pSS-77" value="" style="endArrow=none;dashed=1;html=1;rounded=0;strokeWidth=10;jumpStyle=arc;strokeColor=#000000;" edge="1" parent="pKWMEKCfFmDl4arv5pSS-1">
                    <mxGeometry width="50" height="50" relative="1" as="geometry">
                        <mxPoint x="3063.489999999999" y="1110" as="sourcePoint"/>
                        <mxPoint x="3063.489999999999" y="1210" as="targetPoint"/>
                    </mxGeometry>
                </mxCell>
                <mxCell id="pKWMEKCfFmDl4arv5pSS-78" value="" style="endArrow=none;dashed=1;html=1;rounded=0;strokeWidth=10;jumpStyle=arc;strokeColor=#000000;" edge="1" parent="pKWMEKCfFmDl4arv5pSS-1">
                    <mxGeometry width="50" height="50" relative="1" as="geometry">
                        <mxPoint x="3275.26" y="1110" as="sourcePoint"/>
                        <mxPoint x="3275.26" y="1210" as="targetPoint"/>
                    </mxGeometry>
                </mxCell>
            </root>
        </mxGraphModel>
    </diagram>
</mxfile>